<svg width="40" height="40" viewBox="0 0 40 40" xmlns="http://www.w3.org/2000/svg">
    <g stroke="#16171D" stroke-linecap="round" stroke-linejoin="round" fill="none" fill-rule="evenodd">
        <path d="M38.333 17.76H23.985M6.354 28.123a2.885 2.885 0 1 0 5.77 0 2.885 2.885 0 0 0-5.77 0zM28.275 28.123a2.885 2.885 0 1 0 5.77 0 2.885 2.885 0 0 0-5.77 0zM6.45 17.76h9.564v-5.58h-5.226"/>
        <path d="M5.391 28.123H2.583a.916.916 0 0 1-.917-.917v-6.702c0-.686.44-1.296 1.09-1.513l3.694-1.23 5.766-7.602a3.99 3.99 0 0 1 2.819-1.166H33.68a3.665 3.665 0 0 1 3.606 3.01l1.047 5.758v8.813a.916.916 0 0 1-.737.899l-3.248.65M13.204 28.123H27.97"/>
    </g>
</svg>
