<svg width="40" height="40" viewBox="0 0 40 40" xmlns="http://www.w3.org/2000/svg">
    <g stroke="#16171D" stroke-linejoin="round" fill="none" fill-rule="evenodd">
        <path d="M5.924 27.769a3.044 3.044 0 1 0 6.089-.002 3.044 3.044 0 0 0-6.089.002zM28.37 27.769a3.044 3.044 0 1 0 6.088-.002 3.044 3.044 0 0 0-6.089.002z"/>
        <path d="M34.456 27.769h1.202a1.842 1.842 0 0 0 1.842-1.842V12.872a3.685 3.685 0 0 0-3.684-3.685H6.686A3.044 3.044 0 0 0 3.67 11.83L2.5 20.6v6.246c0 .51.413.922.921.922h2.884M11.63 27.77H28.37M25.63 12.231v6.087M17.444 12.231v6.087"/>
        <path d="M8.424 18.318h23.42a.92.92 0 0 0 .92-.922v-4.245a.92.92 0 0 0-.92-.92H3.261"/>
        <path d="M8.587 12.231v6.087L4.782 20.6H2.5"/>
    </g>
</svg>
