<svg width="40" height="40" viewBox="0 0 40 40" xmlns="http://www.w3.org/2000/svg">
    <g stroke="#16171D" stroke-linecap="round" stroke-linejoin="round" fill="none" fill-rule="evenodd">
        <path d="M16.154 26.396h7.88M11.233 25.475a2.301 2.301 0 0 0 2.796 2.797 2.278 2.278 0 0 0 1.655-1.655 2.301 2.301 0 0 0-2.796-2.797 2.278 2.278 0 0 0-1.655 1.655zM24.39 25.475a2.301 2.301 0 0 0 2.796 2.797 2.278 2.278 0 0 0 1.655-1.655 2.301 2.301 0 0 0-2.797-2.797 2.278 2.278 0 0 0-1.655 1.655zM8.427 20.788h1.245"/>
        <path d="M10.699 26.396h-1.81A1.388 1.388 0 0 1 7.5 25.008V21.28a2.942 2.942 0 0 1 2.577-2.918l3.032-.379 2.303-5.368c.43-.96 1.295-.94 2.095-.94l11.325-.017a3.125 3.125 0 0 1 3.092 2.642l.418 3.678.158 7.029c0 .766-.621 1.388-1.388 1.388h-1.415M31.944 17.984H13.107M22.921 17.978v-6.303"/>
    </g>
</svg>
