<svg width="40" height="40" viewBox="0 0 40 40" xmlns="http://www.w3.org/2000/svg">
    <g stroke="#16171D" stroke-linecap="round" stroke-linejoin="round" fill="none" fill-rule="evenodd">
        <path d="M12.99 27.542h13.55M7.633 27.542a2.677 2.677 0 1 0 5.356 0 2.677 2.677 0 1 0-5.356 0zM26.54 27.542a2.677 2.677 0 1 0 5.356 0 2.677 2.677 0 1 0-5.357 0zM4.476 17.92h12.127V9.78"/>
        <path d="M7.633 27.542h-1.12a2.338 2.338 0 0 1-2.339-2.34v-4.735l-.007-.863a3.725 3.725 0 0 1 1.049-2.622l1.233-1.273 5.232-4.845a3.699 3.699 0 0 1 2.617-1.085h17.215a3.403 3.403 0 0 1 3.348 2.796s.973 5.505.973 5.822v8.353a.853.853 0 0 1-.685.835l-3.016-.043M26.931 17.92h8.902"/>
    </g>
</svg>
