<svg width="40" height="40" viewBox="0 0 40 40" xmlns="http://www.w3.org/2000/svg">
    <g stroke="#16171D" stroke-linecap="round" stroke-linejoin="round" fill="none" fill-rule="evenodd">
        <path d="m22.703 16.37.545-3.143m12.627 3.255H12.097m15.705 7.497-14.729.005m-6.023.001c-1.393 0-2.303.002-2.482.002-.81 0-1.153-.212-1.463-.625a2.883 2.883 0 0 1-.075-.108 3.52 3.52 0 0 1-.53-1.917l.005-.828c.013-1.184 1.128-1.819 1.598-2.06 1.555-.8 3.457-1.332 5.652-1.58.15-.017.3-.034.452-.049.248-.025.49-.051.726-.083.069-.008.135-.018.202-.028a8.33 8.33 0 0 0 .308-.054c.022-.003.042-.008.064-.013.12-.025.24-.052.358-.085a4.714 4.714 0 0 0 .782-.308c.171-.082.343-.167.52-.257l.243-.125a26.344 26.344 0 0 1 5.725-2.065c.073-.018.148-.033.223-.05 1.78-.408 3.58-.59 5.355-.532 1.934.062 3.975.402 6.067 1.009.227.065.455.135.685.21l.097.031c.205.067.411.135.62.21l.075.027c.218.077.44.158.665.245l.061.023c.225.087.454.179.687.274l.042.016c.001 0 .001.002.003.002.557.23 1.583.698 2.19.98.313.145.555.407.677.73l.835 2.222c.091.245.108.513.046.768l-.718 3.002a1.314 1.314 0 0 1-1.278 1.006h-.817c-.02 0-.312.002-.818.002"/>
        <path d="M7.343 23.978a2.812 2.812 0 1 0 5.625-.002 2.812 2.812 0 0 0-5.625.002zM28.145 23.978a2.812 2.812 0 1 0 5.625-.002 2.812 2.812 0 0 0-5.625.002z"/>
    </g>
</svg>
