<svg width="40" height="40" viewBox="0 0 40 40" xmlns="http://www.w3.org/2000/svg">
    <g stroke="#16171D" stroke-linejoin="round" fill="none" fill-rule="evenodd">
        <path d="M7.046 24.838H5.49c-.234 0-.475-.052-.679-.147-.645-.3-.645-1.05-.645-1.455v-1.95c0-2.195 2.134-3.238 3.509-3.572.3-.073.476-.103.761-.161l3.662-.439c.265-.056 1.172-.685 1.905-1.193 1.798-1.248 4.262-2.957 5.997-2.957 10.448 0 11.773 1.02 12.21 1.355 1.37 1.055 2.541 3.595 2.656 3.849.132.236.967 1.785.967 2.82v2.345c0 .998-.22 1.505-1.417 1.505h-2.571" stroke-linecap="round"/>
        <path d="M7.472 24.658a2.379 2.379 0 1 0 4.757 0 2.379 2.379 0 0 0-4.757 0zM27.09 24.658a2.379 2.379 0 1 0 4.756 0 2.379 2.379 0 0 0-4.757 0zM26.84 24.837H12.51M33.628 17.139h-21.41" stroke-linecap="round"/>
        <path d="M23.6 13.268v4.29"/>
        <path stroke-linecap="round" d="M33.251 19.73h1.715"/>
    </g>
</svg>
