<svg width="40" height="40" viewBox="0 0 40 40" xmlns="http://www.w3.org/2000/svg">
    <g stroke="#16171D" stroke-linecap="round" stroke-linejoin="round" fill="none" fill-rule="evenodd">
        <path d="M3.795 18.237h5.773c.787 0 1.43-.643 1.43-1.43v-4.045"/>
        <path d="m14.13 12.322-6.37-.024a2.717 2.717 0 0 0-2.521 1.684l-1.412 3.43c-.561 1.363-1.02 3.686-1.02 5.161v5.089c0 .916.75 1.666 1.667 1.666h1.487M13.391 29.284H26.7M34.362 29.189h1.93v-6.257M14.238 8.776c0-.46.371-.833.831-.833l2.345-.003c.502-.004.979.221 1.297.608l.635.772c.317.385.79.608 1.29.608h15.128c1.72 0 2.8.862 2.767 3.235l-.725 7.652c0 1.36-1.238 2.111-2.47 2.111l-20.248.007a.85.85 0 0 1-.85-.835V8.776z"/>
        <path d="m21.927 19.87 1.631-7.153H21.16M30.466 19.87l1.632-7.153H29.7M30.71 25.9a3.08 3.08 0 1 0 0 6.16 3.08 3.08 0 0 0 0-6.16zM9.648 25.9a3.08 3.08 0 1 0 .001 6.16 3.08 3.08 0 0 0 0-6.16z"/>
    </g>
</svg>
