<svg width="40" height="40" viewBox="0 0 40 40" xmlns="http://www.w3.org/2000/svg">
    <g stroke="#16171D" stroke-linecap="round" fill="none" fill-rule="evenodd">
        <path d="M7.315 25.874H2.08a.832.832 0 0 1-.831-.832v-1.788c0-.352.111-.693.316-.977l2.235-3.08a3.325 3.325 0 0 1 2.293-1.348l3.945-.477 4.192-4.541a3.399 3.399 0 0 1 2.5-1.095h10.602a3.4 3.4 0 0 1 2.507 1.103l4.12 4.493 2.181.327a2.55 2.55 0 0 1 2.15 2.19c.205 1.57.459 3.512.459 3.935 0 1.102-.152 2.09-1.987 2.09H34.1" stroke-linejoin="round"/>
        <path d="M7.246 25.452a2.812 2.812 0 1 0 5.625-.001 2.812 2.812 0 0 0-5.625 0zM28.203 25.452a2.812 2.812 0 1 0 5.625-.002 2.812 2.812 0 0 0-5.625.002z" stroke-linejoin="round"/>
        <path d="M28.114 25.874H13.016"/>
        <path stroke-linejoin="round" d="M33.96 17.376H10.04M19.639 16.573l.723-4.171M27.635 16.686v-4.283"/>
    </g>
</svg>
