<svg width="40" height="40" viewBox="0 0 40 40" xmlns="http://www.w3.org/2000/svg">
    <g stroke="#16171D" stroke-linejoin="round" fill="none" fill-rule="evenodd">
        <path d="M5.682 25.347H3.964c-.259 0-.525-.058-.75-.162-.714-.331-.714-1.161-.714-1.608v-2.155c0-2.427 2.359-3.58 3.879-3.948.331-.082.526-.115.841-.179l4.047-.485c.293-.061 1.295-.756 2.105-1.318 1.988-1.38 4.712-3.268 6.628-3.268 11.549 0 13.014 1.126 13.495 1.498 1.514 1.165 2.81 3.972 2.937 4.252.145.263 1.068 1.973 1.068 3.116v2.594c0 1.103-.241 1.663-1.565 1.663h-2.843" stroke-linecap="round"/>
        <path d="M6.153 25.148a2.628 2.628 0 1 0 5.256 0 2.628 2.628 0 0 0-5.256 0zM27.836 25.148a2.628 2.628 0 1 0 5.256 0 2.628 2.628 0 0 0-5.256 0zM27.56 25.347H11.72M35.062 16.838H11.4" stroke-linecap="round"/>
        <path d="m20.748 12.559 1.495 4.74M29.97 12.559l-1.495 4.74"/>
        <path stroke-linecap="round" d="M34.645 19.7h1.897"/>
    </g>
</svg>
