<svg width="40" height="40" viewBox="0 0 40 40" xmlns="http://www.w3.org/2000/svg">
    <g stroke="#16171D" stroke-linecap="round" stroke-linejoin="round" fill="none" fill-rule="evenodd">
        <path d="M13.651 27.044h12.435M7.103 26.647a2.977 2.977 0 1 0 5.954-.002 2.977 2.977 0 0 0-5.955.002zM26.547 26.647a2.977 2.977 0 1 0 5.955-.002 2.977 2.977 0 0 0-5.955.002zM3.333 20.695h2.382"/>
        <path d="M6.508 27.044H4.126a.793.793 0 0 1-.793-.794v-6.535c0-.801.597-1.476 1.39-1.575l4.96-.62 5.402-6.078a3.178 3.178 0 0 1 2.373-1.065h14.558a3.51 3.51 0 0 1 3.38 2.57l1.27 4.573v7.937c0 .877-.71 1.587-1.586 1.587H33.49M36.667 17.52H9.683M20.792 17.519v-7.143"/>
    </g>
</svg>
