<svg width="40" height="40" viewBox="0 0 40 40" xmlns="http://www.w3.org/2000/svg">
    <g stroke="#16171D" stroke-linecap="round" fill="none" fill-rule="evenodd">
        <path d="M25.222 25.228H14.715M9.907 25.228H7.84c-.945 0-1.985-.748-2.006-1.878-.019-.913.958-2.495 1.901-3.728a3.982 3.982 0 0 1 2.952-1.56l1.057-.059c2.175-2.931 2.833-5.518 8.223-5.518.99 0 4.457.102 5.605.263 6.775.955 6.942 7.02 7.567 9.384a1.633 1.633 0 0 1 1.023 1.646c-.055.699-.61 1.45-1.705 1.45h-2.295"/>
        <path d="M10.029 25.173a2.343 2.343 0 1 0 4.686 0 2.343 2.343 0 0 0-4.686 0zM25.221 25.173a2.343 2.343 0 1 0 4.687 0 2.343 2.343 0 0 0-4.687 0zM11.87 17.99h10.402l1.617-4.94" stroke-linejoin="round"/>
    </g>
</svg>
